<svg version="1.1" id="Layer_1" xmlns="http://www.w3.org/2000/svg" xmlns:xlink="http://www.w3.org/1999/xlink" x="0px" y="0px"
	 width="100%" viewBox="0 0 152 163" enable-background="new 0 0 152 163" xml:space="preserve">
<path fill="#000000" opacity="1.000000" stroke="none" 
	d="
M87.000000,164.000000 
	C58.000004,164.000000 29.500008,164.000000 1.000008,164.000000 
	C1.000005,109.666679 1.000005,55.333355 1.000003,1.000022 
	C51.666653,1.000015 102.333305,1.000015 152.999969,1.000007 
	C152.999969,55.333313 152.999969,109.666626 152.999985,163.999969 
	C131.166672,164.000000 109.333336,164.000000 87.000000,164.000000 
M120.538429,96.915466 
	C120.629601,96.611420 120.720764,96.307373 121.112495,95.361572 
	C125.757362,87.804825 130.676941,80.396652 134.889923,72.606354 
	C136.262817,70.067726 136.120789,66.530556 136.104263,63.453136 
	C136.052948,53.885002 130.692352,47.044716 123.735298,41.370403 
	C117.142921,35.993534 109.588905,33.406872 101.077370,36.041676 
	C96.659660,37.409214 92.405266,39.304329 87.934967,40.510284 
	C87.934967,40.510284 87.807266,40.056225 87.986000,39.525040 
	C87.931419,39.346371 87.876846,39.167706 87.947784,38.146729 
	C87.961143,28.062338 80.321457,20.122005 70.555817,20.070339 
	C61.685902,20.023413 54.007870,28.358879 54.008614,38.020390 
	C54.008820,40.672455 53.972500,43.324520 53.214775,46.005451 
	C52.481991,46.074215 51.749210,46.142982 50.169170,46.052402 
	C46.630508,45.709774 43.085102,45.021435 39.554474,45.090351 
	C29.581871,45.284992 23.310047,50.906319 19.791653,59.772308 
	C16.544580,67.954590 17.939453,75.484230 24.047216,82.751343 
	C26.008541,85.522316 27.969866,88.293282 30.005026,91.789589 
	C32.054520,95.205376 34.104015,98.621162 36.925060,103.322861 
	C37.781052,99.479156 38.676590,97.047913 38.794693,94.579475 
	C39.006866,90.144882 40.197208,84.936974 38.364582,81.410912 
	C35.384853,75.677765 34.911167,70.059189 35.538334,63.906857 
	C35.708038,63.619560 35.877747,63.332260 36.890285,62.997120 
	C38.578579,63.018181 40.266872,63.039242 42.000790,63.004410 
	C42.000790,63.004410 41.939301,63.041912 42.031620,63.577858 
	C42.338608,63.658825 42.645599,63.739796 43.892563,63.903992 
	C57.825077,63.903992 71.757591,63.903992 85.803360,63.903992 
	C85.803360,69.508324 85.803360,74.580368 85.803360,80.026505 
	C78.630951,80.026505 71.678047,80.026497 64.725151,80.026497 
	C57.616257,80.026497 50.507366,80.026505 43.006840,80.026505 
	C43.006840,87.298012 42.982788,94.087212 43.013802,100.876160 
	C43.043118,107.292877 46.625088,110.928787 52.959118,110.949013 
	C63.781986,110.983582 74.605011,110.980659 85.427956,110.975288 
	C92.278618,110.971886 94.822792,108.331520 94.968491,101.520332 
	C95.226562,89.455742 95.804993,77.393814 95.797668,65.331039 
	C95.796074,62.708767 94.221664,59.888947 92.793709,57.506504 
	C89.612991,52.199688 84.117432,53.028828 79.023575,52.169773 
	C79.369362,50.782249 79.715149,49.394726 80.901474,47.930550 
	C82.586487,47.875656 84.271492,47.820759 86.606735,47.964722 
	C87.059227,47.979939 87.511726,47.995155 88.205986,48.691139 
	C92.398819,53.667885 96.901802,55.029858 103.425056,52.227577 
	C108.743896,49.942684 113.276199,53.635632 116.452354,57.991665 
	C119.222275,61.790550 119.566109,66.006050 117.027420,70.179428 
	C113.163902,76.530708 109.183876,82.812378 105.397614,89.209023 
	C101.999084,94.950615 96.835953,99.813950 97.861832,107.648819 
	C98.313629,111.099380 95.605133,113.915596 91.097176,115.021461 
	C87.444405,115.010452 83.791649,114.993668 80.138870,114.989685 
	C73.207932,114.982124 73.207932,114.985176 76.016586,122.746284 
	C76.072517,123.162697 76.128448,123.579117 76.029182,124.728813 
	C76.328796,125.831459 76.628418,126.934113 77.008163,128.775497 
	C77.078728,129.512375 77.149292,130.249252 77.120132,131.510574 
	C77.407715,131.699188 77.695297,131.887802 78.047356,132.551743 
	C78.047356,132.551743 78.197319,133.007401 78.036964,133.700378 
	C78.352524,134.490341 78.668091,135.280304 79.023743,136.715485 
	C79.087440,137.139023 79.151138,137.562546 79.061852,138.621796 
	C79.365692,139.103867 79.669540,139.585922 80.058517,140.542938 
	C80.058517,140.542938 80.203941,141.003021 80.032166,141.808777 
	C81.311523,144.825485 79.337357,149.279724 84.662315,150.946289 
	C85.105804,150.895538 85.549286,150.844788 86.511284,150.886627 
	C86.605476,150.589737 86.699677,150.292831 86.953835,149.557220 
	C86.953835,149.557220 87.031242,149.096695 87.656746,148.859344 
	C88.142113,147.920654 88.627472,146.981979 89.735558,145.738525 
	C90.851952,143.508179 91.968346,141.277847 93.013420,139.012970 
	C93.013420,139.012970 93.042969,139.086487 93.553932,138.928848 
	C93.643326,138.620834 93.732719,138.312836 93.967308,137.565918 
	C93.967308,137.565918 94.033394,137.108368 94.548004,136.937439 
	C94.729332,136.636826 94.910660,136.336197 95.019272,136.018112 
	C95.019272,136.018112 95.037849,136.090546 95.552681,135.932343 
	C95.732864,135.633881 95.913048,135.335434 96.022797,135.003891 
	C96.022797,135.003891 96.050339,135.076675 96.568840,134.915848 
	C96.396507,134.565262 96.224174,134.214691 96.238686,133.290100 
	C96.772469,132.857025 97.306252,132.423965 98.111008,131.385681 
	C98.441284,130.609344 98.771553,129.833023 99.022308,129.016068 
	C99.022308,129.016068 99.060875,129.096603 99.673973,128.844696 
	C100.159966,127.909256 100.645966,126.973816 101.587891,125.920364 
	C101.882004,125.739243 102.031578,125.475998 102.658394,124.817192 
	C103.468819,123.227631 104.279243,121.638069 105.016975,120.021629 
	C105.016975,120.021629 105.037056,120.096474 105.543999,119.923347 
	C105.733391,119.630142 105.922783,119.336929 106.031738,119.018867 
	C106.031738,119.018867 106.065964,119.095779 106.719528,118.815117 
	C108.516411,115.553444 110.313286,112.291763 112.559059,108.893723 
	C112.845222,108.712059 113.002274,108.452324 113.550461,107.943832 
	C113.646690,107.628601 113.742920,107.313362 113.982933,106.563454 
	C113.982933,106.563454 114.028923,106.107933 114.521797,105.921104 
	C114.619438,105.617905 114.717079,105.314705 114.981285,104.580276 
	C114.981285,104.580276 115.035133,104.121147 115.543869,103.933311 
	C115.726936,103.632988 115.909996,103.332672 116.018677,103.012505 
	C116.018677,103.012505 116.050964,103.082397 116.688553,102.816628 
	C117.488335,101.226540 118.288116,99.636452 119.016457,98.018524 
	C119.016457,98.018524 119.036209,98.092613 119.549622,97.929146 
	C119.726509,97.629295 119.903397,97.329445 120.011017,97.011215 
	C120.011017,97.011215 120.036278,97.078270 120.538429,96.915466 
M70.567909,120.947029 
	C70.656685,120.628754 70.745461,120.310486 70.954536,119.252090 
	C70.910995,118.506027 70.867455,117.759964 70.919189,116.472473 
	C70.608978,116.370918 70.298767,116.269363 69.195068,116.042892 
	C68.127655,116.089561 67.060249,116.136230 65.199333,115.998741 
	C62.461060,115.982224 59.722786,115.965714 56.084499,116.041222 
	C53.071735,115.996765 50.058975,115.952309 46.814457,115.350433 
	C46.510735,116.249969 46.207012,117.149506 46.182236,118.702171 
	C50.789272,126.094856 55.340874,133.522949 60.028831,140.863968 
	C62.095417,144.100082 63.145405,143.875549 65.547401,139.923859 
	C65.633118,139.613663 65.718842,139.303467 65.947884,138.261032 
	C65.988037,137.516922 66.028191,136.772812 66.726448,135.722351 
	C67.077896,134.141464 67.429337,132.560562 67.927216,130.335159 
	C67.966705,129.896774 68.006203,129.458405 68.735092,128.679825 
	C69.097900,126.454277 69.460716,124.228729 69.963425,121.567535 
	C69.963425,121.567535 70.043449,121.117035 70.567909,120.947029 
z"/>
<path fill="#70CEEE" opacity="1.000000" stroke="none" 
	d="
M114.028923,106.107933 
	C114.028923,106.107933 113.982933,106.563454 113.716866,106.918831 
	C113.219505,107.508713 113.079315,107.788818 113.030228,108.114517 
	C113.002274,108.452324 112.845222,108.712059 111.965744,108.988663 
	C107.331497,111.216782 106.514023,115.058388 106.065964,119.095779 
	C106.065964,119.095779 106.031738,119.018867 105.828049,119.131973 
	C105.428589,119.528877 105.232819,119.812675 105.037048,120.096466 
	C105.037056,120.096474 105.016975,120.021629 104.675781,120.064423 
	C103.568596,121.781693 102.802605,123.456161 102.036606,125.130630 
	C102.031578,125.475998 101.882004,125.739243 100.999344,126.020409 
	C99.960823,127.112503 99.510849,128.104553 99.060875,129.096603 
	C99.060875,129.096603 99.022308,129.016068 98.737488,129.057861 
	C98.248451,130.063385 98.044243,131.027145 97.840034,131.990891 
	C97.306252,132.423965 96.772469,132.857025 96.128098,133.880356 
	C96.028450,134.672623 96.039391,134.874649 96.050339,135.076675 
	C96.050339,135.076675 96.022797,135.003891 95.816040,135.120728 
	C95.418816,135.521896 95.228333,135.806229 95.037857,136.090546 
	C95.037849,136.090546 95.019272,136.018112 94.812622,136.131165 
	C94.415115,136.532257 94.224258,136.820312 94.033394,137.108368 
	C94.033394,137.108368 93.967308,137.565918 93.705734,137.918198 
	C93.214088,138.495117 93.080360,138.767120 93.042969,139.086487 
	C93.042969,139.086487 93.013420,139.012970 92.730469,139.050751 
	C91.637459,139.725830 90.827393,140.363098 89.637207,140.993622 
	C86.180916,139.994293 83.104744,139.001740 79.825195,138.001373 
	C79.621819,137.993576 79.214836,137.986084 79.214836,137.986084 
	C79.151138,137.562546 79.087440,137.139023 79.014633,136.060730 
	C78.736115,134.606445 78.466713,133.806931 78.197311,133.007401 
	C78.197319,133.007401 78.047356,132.551743 77.952881,132.092346 
	C77.715836,131.347946 77.502991,131.132339 77.219856,130.986130 
	C77.149292,130.249252 77.078728,129.512375 77.210403,128.234650 
	C77.003227,126.461052 76.593803,125.228294 76.184380,123.995529 
	C76.128448,123.579117 76.072517,123.162697 76.003456,121.991364 
	C75.591995,118.085892 76.819740,116.628334 80.134842,116.962639 
	C82.091408,117.159950 84.120895,117.236755 86.050278,116.935989 
	C88.083656,116.619011 90.036919,115.788040 92.025185,115.181625 
	C95.605133,113.915596 98.313629,111.099380 97.861832,107.648819 
	C96.835953,99.813950 101.999084,94.950615 105.397614,89.209023 
	C109.183876,82.812378 113.163902,76.530708 117.027420,70.179428 
	C119.566109,66.006050 119.222275,61.790550 116.452354,57.991665 
	C113.276199,53.635632 108.743896,49.942684 103.425056,52.227577 
	C96.901802,55.029858 92.398819,53.667885 88.050240,48.040558 
	C87.540077,46.911144 87.185669,46.432308 86.835709,45.633499 
	C86.864960,44.887611 86.889748,44.461689 87.183083,43.848652 
	C87.573570,43.040127 87.695503,42.418720 87.855453,41.579910 
	C87.893471,41.362511 88.077103,40.961117 88.077103,40.961113 
	C92.405266,39.304329 96.659660,37.409214 101.077370,36.041676 
	C109.588905,33.406872 117.142921,35.993534 123.735298,41.370403 
	C130.692352,47.044716 136.052948,53.885002 136.104263,63.453136 
	C136.120789,66.530556 136.262817,70.067726 134.889923,72.606354 
	C130.676941,80.396652 125.757362,87.804825 120.775169,95.815002 
	C120.214798,96.494156 120.080940,96.764099 120.036278,97.078270 
	C120.036278,97.078270 120.011017,97.011215 119.807587,97.126404 
	C119.414833,97.525261 119.225517,97.808937 119.036209,98.092613 
	C119.036209,98.092613 119.016457,98.018524 118.694077,98.072617 
	C117.598122,99.778603 116.824539,101.430496 116.050964,103.082397 
	C116.050964,103.082397 116.018677,103.012505 115.813950,103.131966 
	C115.417870,103.541336 115.226501,103.831245 115.035133,104.121147 
	C115.035133,104.121147 114.981285,104.580276 114.709015,104.932053 
	C114.212875,105.515007 114.076935,105.789711 114.028923,106.107933 
z"/>
<path fill="#F7F8FB" opacity="1.000000" stroke="none" 
	d="
M79.051720,52.915913 
	C84.117432,53.028828 89.612991,52.199688 92.793709,57.506504 
	C94.221664,59.888947 95.796074,62.708767 95.797668,65.331039 
	C95.804993,77.393814 95.226562,89.455742 94.968491,101.520332 
	C94.822792,108.331520 92.278618,110.971886 85.427956,110.975288 
	C74.605011,110.980659 63.781986,110.983582 52.959118,110.949013 
	C46.625088,110.928787 43.043118,107.292877 43.013802,100.876160 
	C42.982788,94.087212 43.006840,87.298012 43.006840,80.026505 
	C50.507366,80.026505 57.616257,80.026497 64.725151,80.026497 
	C71.678047,80.026497 78.630951,80.026505 85.803360,80.026505 
	C85.803360,74.580368 85.803360,69.508324 85.803360,63.903992 
	C71.757591,63.903992 57.825077,63.903992 43.310432,63.664360 
	C42.540112,63.143089 42.277111,63.015480 41.939301,63.041912 
	C41.939301,63.041912 42.000790,63.004410 42.020977,62.689705 
	C41.739231,61.558445 41.437298,60.741890 41.140800,59.725365 
	C41.146244,59.525391 41.098949,59.127144 41.425240,59.014534 
	C44.166412,56.922863 46.581299,54.943802 49.454063,53.038879 
	C53.912716,53.075546 57.913490,53.038082 62.148048,53.074211 
	C62.381832,53.147797 62.868286,53.208199 63.209618,53.447460 
	C67.356865,53.752178 71.162773,53.817631 75.341637,53.926727 
	C76.826965,53.618885 77.939346,53.267399 79.051720,52.915913 
z"/>
<path fill="#F2F4F8" opacity="1.000000" stroke="none" 
	d="
M86.914528,44.035770 
	C86.889748,44.461689 86.864960,44.887611 86.633850,45.802467 
	C86.270523,46.782890 86.113510,47.274376 85.956505,47.765862 
	C84.271492,47.820759 82.586487,47.875656 80.466209,47.655224 
	C79.671211,46.910439 79.311478,46.440979 78.993744,45.516258 
	C78.923271,41.438202 79.669022,37.493988 78.465263,34.279919 
	C77.172829,30.829102 73.575279,29.329580 69.444992,29.893780 
	C65.743233,30.399439 63.531662,32.153618 62.980003,35.873371 
	C62.577763,38.585621 62.203064,41.301952 61.668015,44.104103 
	C61.469715,44.294235 61.349987,44.438030 61.381893,44.491711 
	C61.491100,44.675480 61.653549,44.827614 61.856636,45.320614 
	C61.930534,46.094276 61.943493,46.539135 61.620602,46.957069 
	C60.539555,47.303150 59.794357,47.676159 58.670887,47.986923 
	C57.529652,47.977043 56.766685,48.029400 55.895386,47.795509 
	C55.175674,46.998371 54.564304,46.487476 53.952934,45.976585 
	C53.972500,43.324520 54.008820,40.672455 54.008614,38.020390 
	C54.007870,28.358879 61.685902,20.023413 70.555817,20.070339 
	C80.321457,20.122005 87.961143,28.062338 87.736618,38.667900 
	C87.477516,39.298065 87.359962,39.444183 87.394600,39.509125 
	C87.500793,39.708218 87.665382,39.876167 87.807266,40.056225 
	C87.807266,40.056225 87.934967,40.510284 88.006035,40.735703 
	C88.077103,40.961117 87.893471,41.362511 87.588387,41.654751 
	C87.160378,42.643250 87.037453,43.339512 86.914528,44.035770 
z"/>
<path fill="#76CFEF" opacity="1.000000" stroke="none" 
	d="
M66.068336,136.028702 
	C66.028191,136.772812 65.988037,137.516922 65.685745,138.762299 
	C65.188133,139.490952 65.059502,139.767960 65.037712,140.094604 
	C63.145405,143.875549 62.095417,144.100082 60.028831,140.863968 
	C55.340874,133.522949 50.789272,126.094856 46.308418,118.195786 
	C46.638470,117.095543 46.842339,116.501694 47.046211,115.907852 
	C50.058975,115.952309 53.071735,115.996765 56.799179,116.290398 
	C60.340183,116.420685 63.166512,116.301796 65.992836,116.182899 
	C67.060249,116.136230 68.127655,116.089561 69.690948,116.282684 
	C70.354034,116.744820 70.566391,116.908623 70.823914,117.013901 
	C70.867455,117.759964 70.910995,118.506027 70.702042,119.762970 
	C70.207451,120.503502 70.072090,120.784561 70.043449,121.117035 
	C70.043449,121.117035 69.963425,121.567535 69.606659,121.975891 
	C68.848495,124.596169 68.447098,126.808098 68.045692,129.020020 
	C68.006203,129.458405 67.966705,129.896774 67.527473,130.725403 
	C66.774597,132.753342 66.421463,134.391022 66.068336,136.028702 
z"/>
<path fill="#79C4E2" opacity="1.000000" stroke="none" 
	d="
M48.996185,52.964745 
	C46.581299,54.943802 44.166412,56.922863 41.280273,58.701447 
	C39.365681,54.885391 42.756008,54.708191 44.428921,53.191711 
	C45.508804,52.212799 46.846943,50.552944 46.660404,49.432915 
	C46.496201,48.446964 44.451180,47.268303 43.105507,47.071320 
	C36.756714,46.141964 32.269463,48.884720 27.482363,53.300888 
	C20.283974,59.941502 17.802788,67.779503 22.448227,76.197380 
	C23.375729,77.878082 23.641161,79.924156 24.148346,81.861557 
	C24.084814,81.921356 23.957920,82.041138 23.957920,82.041138 
	C17.939453,75.484230 16.544580,67.954590 19.791653,59.772308 
	C23.310047,50.906319 29.581871,45.284992 39.554474,45.090351 
	C43.085102,45.021435 46.630508,45.709774 50.722870,46.354256 
	C51.513058,47.107395 51.749550,47.558681 51.878502,48.321953 
	C50.846031,50.077541 49.921108,51.521145 48.996185,52.964745 
z"/>
<path fill="#79C4E2" opacity="1.000000" stroke="none" 
	d="
M35.038521,64.039856 
	C34.911167,70.059189 35.384853,75.677765 38.364582,81.410912 
	C40.197208,84.936974 39.006866,90.144882 38.794693,94.579475 
	C38.676590,97.047913 37.781052,99.479156 36.925060,103.322861 
	C34.104015,98.621162 32.054520,95.205376 30.033272,91.365463 
	C30.061518,90.941338 30.191748,90.818314 30.530895,90.924393 
	C32.291435,90.889809 34.781612,91.087936 34.951900,90.550705 
	C35.751392,88.028481 36.517239,85.220970 36.166065,82.670792 
	C35.590485,78.490982 33.784431,74.480217 33.213562,70.300339 
	C32.935600,68.265099 34.276176,66.008804 34.921913,63.900040 
	C34.959747,63.947502 35.038521,64.039856 35.038521,64.039856 
z"/>
<path fill="#7BD1F1" opacity="1.000000" stroke="none" 
	d="
M80.028564,138.009186 
	C83.104744,139.001740 86.180916,139.994293 89.499489,141.303589 
	C89.156898,143.078430 88.571915,144.536560 87.723785,146.213181 
	C87.317497,147.320023 87.174370,148.208359 87.031250,149.096695 
	C87.031242,149.096695 86.953835,149.557220 86.698654,149.862946 
	C86.225266,150.328156 86.075035,150.536606 85.992775,150.794037 
	C85.549286,150.844788 85.105804,150.895538 84.164955,150.551010 
	C82.513046,147.104828 81.358498,144.053925 80.203941,141.003021 
	C80.203941,141.003021 80.058517,140.542938 80.029816,139.962219 
	C80.010254,138.924057 80.019409,138.466614 80.028564,138.009186 
z"/>
<path fill="#82BFDF" opacity="1.000000" stroke="none" 
	d="
M91.561180,115.101547 
	C90.036919,115.788040 88.083656,116.619011 86.050278,116.935989 
	C84.120895,117.236755 82.091408,117.159950 80.134842,116.962639 
	C76.819740,116.628334 75.591995,118.085892 75.978195,121.675758 
	C73.207932,114.985176 73.207932,114.982124 80.138870,114.989685 
	C83.791649,114.993668 87.444405,115.010452 91.561180,115.101547 
z"/>
<path fill="#ADD1E7" opacity="1.000000" stroke="none" 
	d="
M78.951744,45.971519 
	C79.311478,46.440979 79.671211,46.910439 80.045937,47.693550 
	C79.715149,49.394726 79.369362,50.782249 79.037643,52.542843 
	C77.939346,53.267399 76.826965,53.618885 75.403786,53.614433 
	C76.356430,51.285618 79.303368,49.522991 76.027206,46.641914 
	C77.100822,46.203308 78.026283,46.087414 78.951744,45.971519 
z"/>
<path fill="#7FC9E9" opacity="1.000000" stroke="none" 
	d="
M106.392746,118.955444 
	C106.514023,115.058388 107.331497,111.216782 111.741295,109.056847 
	C110.313286,112.291763 108.516411,115.553444 106.392746,118.955444 
z"/>
<path fill="#79C4E2" opacity="1.000000" stroke="none" 
	d="
M29.996353,91.002792 
	C27.969866,88.293282 26.008541,85.522316 24.002567,82.396240 
	C23.957920,82.041138 24.084814,81.921356 24.470537,81.971283 
	C26.634756,84.953575 28.413252,87.885941 30.191748,90.818314 
	C30.191748,90.818314 30.061518,90.941338 29.996353,91.002792 
z"/>
<path fill="#82BFDF" opacity="1.000000" stroke="none" 
	d="
M80.118057,141.405899 
	C81.358498,144.053925 82.513046,147.104828 83.836105,150.477631 
	C79.337357,149.279724 81.311523,144.825485 80.118057,141.405899 
z"/>
<path fill="#76BDDB" opacity="1.000000" stroke="none" 
	d="
M65.596085,116.090820 
	C63.166512,116.301796 60.340183,116.420685 57.249184,116.244385 
	C59.722786,115.965714 62.461060,115.982224 65.596085,116.090820 
z"/>
<path fill="#79C4E2" opacity="1.000000" stroke="none" 
	d="
M41.135361,59.925335 
	C41.437298,60.741890 41.739231,61.558445 41.998165,62.717651 
	C40.266872,63.039242 38.578579,63.018181 36.420429,62.979897 
	C35.950573,62.962669 35.850998,62.883659 35.963123,62.551308 
	C37.761951,61.454418 39.448658,60.689877 41.135361,59.925335 
z"/>
<path fill="#7DC2E2" opacity="1.000000" stroke="none" 
	d="
M87.986938,145.994675 
	C88.571915,144.536560 89.156898,143.078430 89.879608,141.310333 
	C90.827393,140.363098 91.637459,139.725830 92.766129,139.068024 
	C91.968346,141.277847 90.851952,143.508179 89.142792,145.877121 
	C88.362328,146.008713 88.174629,146.001694 87.986938,145.994675 
z"/>
<path fill="#76BDDB" opacity="1.000000" stroke="none" 
	d="
M68.390396,128.849915 
	C68.447098,126.808098 68.848495,124.596169 69.536713,122.193710 
	C69.460716,124.228729 69.097900,126.454277 68.390396,128.849915 
z"/>
<path fill="#76BDDB" opacity="1.000000" stroke="none" 
	d="
M66.397385,135.875519 
	C66.421463,134.391022 66.774597,132.753342 67.454254,131.047668 
	C67.429337,132.560562 67.077896,134.141464 66.397385,135.875519 
z"/>
<path fill="#ADD1E7" opacity="1.000000" stroke="none" 
	d="
M51.986046,48.009972 
	C51.749550,47.558681 51.513058,47.107395 51.146496,46.433929 
	C51.749210,46.142982 52.481991,46.074215 53.583855,45.991020 
	C54.564304,46.487476 55.175674,46.998371 55.777771,48.117752 
	C54.507683,48.487484 53.246864,48.248726 51.986046,48.009972 
z"/>
<path fill="#7FC9E9" opacity="1.000000" stroke="none" 
	d="
M116.369759,102.949509 
	C116.824539,101.430496 117.598122,99.778603 118.729797,98.086533 
	C118.288116,99.636452 117.488335,101.226540 116.369759,102.949509 
z"/>
<path fill="#7FC9E9" opacity="1.000000" stroke="none" 
	d="
M102.347504,124.973907 
	C102.802605,123.456161 103.568596,121.781693 104.712128,120.077866 
	C104.279243,121.638069 103.468819,123.227631 102.347504,124.973907 
z"/>
<path fill="#82BFDF" opacity="1.000000" stroke="none" 
	d="
M76.106781,124.362167 
	C76.593803,125.228294 77.003227,126.461052 77.170341,127.865288 
	C76.628418,126.934113 76.328796,125.831459 76.106781,124.362167 
z"/>
<path fill="#7FC9E9" opacity="1.000000" stroke="none" 
	d="
M97.975525,131.688293 
	C98.044243,131.027145 98.248451,130.063385 98.777252,129.078156 
	C98.771553,129.833023 98.441284,130.609344 97.975525,131.688293 
z"/>
<path fill="#7FC9E9" opacity="1.000000" stroke="none" 
	d="
M99.367424,128.970642 
	C99.510849,128.104553 99.960823,127.112503 100.771378,126.079414 
	C100.645966,126.973816 100.159966,127.909256 99.367424,128.970642 
z"/>
<path fill="#76BDDB" opacity="1.000000" stroke="none" 
	d="
M46.930332,115.629135 
	C46.842339,116.501694 46.638470,117.095543 46.168945,117.869217 
	C46.207012,117.149506 46.510735,116.249969 46.930332,115.629135 
z"/>
<path fill="#82BFDF" opacity="1.000000" stroke="none" 
	d="
M87.723778,146.213181 
	C88.174629,146.001694 88.362328,146.008713 88.831429,146.029510 
	C88.627472,146.981979 88.142113,147.920654 87.343994,148.978027 
	C87.174370,148.208359 87.317497,147.320023 87.723778,146.213181 
z"/>
<path fill="#ADD1E7" opacity="1.000000" stroke="none" 
	d="
M86.281616,47.865292 
	C86.113510,47.274376 86.270523,46.782890 86.629395,46.122437 
	C87.185669,46.432308 87.540077,46.911144 87.929352,47.700180 
	C87.511726,47.995155 87.059227,47.979939 86.281616,47.865292 
z"/>
<path fill="#82BFDF" opacity="1.000000" stroke="none" 
	d="
M78.117142,133.353882 
	C78.466713,133.806931 78.736115,134.606445 78.994583,135.738129 
	C78.668091,135.280304 78.352524,134.490341 78.117142,133.353882 
z"/>
<path fill="#82BFDF" opacity="1.000000" stroke="none" 
	d="
M79.825195,138.001373 
	C80.019409,138.466614 80.010254,138.924057 79.987244,139.724731 
	C79.669540,139.585922 79.365692,139.103867 79.138344,138.303940 
	C79.214836,137.986084 79.621819,137.993576 79.825195,138.001373 
z"/>
<path fill="#7DC2E2" opacity="1.000000" stroke="none" 
	d="
M95.295273,136.011444 
	C95.228333,135.806229 95.418816,135.521896 95.851257,135.137268 
	C95.913048,135.335434 95.732864,135.633881 95.295273,136.011444 
z"/>
<path fill="#7DC2E2" opacity="1.000000" stroke="none" 
	d="
M96.309586,134.996262 
	C96.039391,134.874649 96.028450,134.672623 96.034676,134.167358 
	C96.224174,134.214691 96.396507,134.565262 96.309586,134.996262 
z"/>
<path fill="#82BFDF" opacity="1.000000" stroke="none" 
	d="
M86.252029,150.840332 
	C86.075035,150.536606 86.225266,150.328156 86.618668,150.082306 
	C86.699677,150.292831 86.605476,150.589737 86.252029,150.840332 
z"/>
<path fill="#7DC2E2" opacity="1.000000" stroke="none" 
	d="
M94.290695,137.022903 
	C94.224258,136.820312 94.415115,136.532257 94.848976,136.139893 
	C94.910660,136.336197 94.729332,136.636826 94.290695,137.022903 
z"/>
<path fill="#76BDDB" opacity="1.000000" stroke="none" 
	d="
M65.292557,140.009232 
	C65.059502,139.767960 65.188133,139.490952 65.614082,139.128418 
	C65.718842,139.303467 65.633118,139.613663 65.292557,140.009232 
z"/>
<path fill="#7DC2E2" opacity="1.000000" stroke="none" 
	d="
M93.298447,139.007660 
	C93.080360,138.767120 93.214088,138.495117 93.633133,138.137650 
	C93.732719,138.312836 93.643326,138.620834 93.298447,139.007660 
z"/>
<path fill="#82BFDF" opacity="1.000000" stroke="none" 
	d="
M77.169998,131.248352 
	C77.502991,131.132339 77.715836,131.347946 77.920639,131.854675 
	C77.695297,131.887802 77.407715,131.699188 77.169998,131.248352 
z"/>
<path fill="#76BDDB" opacity="1.000000" stroke="none" 
	d="
M70.305679,121.032028 
	C70.072090,120.784561 70.207451,120.503502 70.641891,120.133026 
	C70.745461,120.310486 70.656685,120.628754 70.305679,121.032028 
z"/>
<path fill="#7FC9E9" opacity="1.000000" stroke="none" 
	d="
M105.290527,120.009903 
	C105.232819,119.812675 105.428589,119.528877 105.868271,119.144402 
	C105.922783,119.336929 105.733391,119.630142 105.290527,120.009903 
z"/>
<path fill="#76BDDB" opacity="1.000000" stroke="none" 
	d="
M70.871552,116.743187 
	C70.566391,116.908623 70.354034,116.744820 70.087700,116.345146 
	C70.298767,116.269363 70.608978,116.370918 70.871552,116.743187 
z"/>
<path fill="#7FC9E9" opacity="1.000000" stroke="none" 
	d="
M113.290344,108.029175 
	C113.079315,107.788818 113.219505,107.508713 113.644974,107.136169 
	C113.742920,107.313362 113.646690,107.628601 113.290344,108.029175 
z"/>
<path fill="#7FC9E9" opacity="1.000000" stroke="none" 
	d="
M114.275360,106.014519 
	C114.076935,105.789711 114.212875,105.515007 114.625732,105.147659 
	C114.717079,105.314705 114.619438,105.617905 114.275360,106.014519 
z"/>
<path fill="#7FC9E9" opacity="1.000000" stroke="none" 
	d="
M115.289505,104.027229 
	C115.226501,103.831245 115.417870,103.541336 115.851151,103.141891 
	C115.909996,103.332672 115.726936,103.632988 115.289505,104.027229 
z"/>
<path fill="#7FC9E9" opacity="1.000000" stroke="none" 
	d="
M119.292908,98.010880 
	C119.225517,97.808937 119.414833,97.525261 119.842209,97.135590 
	C119.903397,97.329445 119.726509,97.629295 119.292908,98.010880 
z"/>
<path fill="#7FC9E9" opacity="1.000000" stroke="none" 
	d="
M120.287354,96.996872 
	C120.080940,96.764099 120.214798,96.494156 120.624886,96.135880 
	C120.720764,96.307373 120.629601,96.611420 120.287354,96.996872 
z"/>
<path fill="#79C4E2" opacity="1.000000" stroke="none" 
	d="
M41.985458,63.309883 
	C42.277111,63.015480 42.540112,63.143089 42.840446,63.622749 
	C42.645599,63.739796 42.338608,63.658825 41.985458,63.309883 
z"/>
<path fill="#79C4E2" opacity="1.000000" stroke="none" 
	d="
M35.999016,63.003815 
	C35.877747,63.332260 35.708038,63.619560 35.288429,63.973358 
	C35.038521,64.039856 34.959747,63.947502 35.053852,63.711056 
	C35.347462,63.236179 35.581810,63.039196 35.850998,62.883659 
	C35.850998,62.883659 35.950573,62.962669 35.999016,63.003815 
z"/>
<path fill="#ADD1E7" opacity="1.000000" stroke="none" 
	d="
M87.896637,39.790634 
	C87.665382,39.876167 87.500793,39.708218 87.394600,39.509125 
	C87.359962,39.444183 87.477516,39.298065 87.673874,39.089058 
	C87.876846,39.167706 87.931419,39.346371 87.896637,39.790634 
z"/>
<path fill="#ADD1E7" opacity="1.000000" stroke="none" 
	d="
M87.183083,43.848652 
	C87.037453,43.339512 87.160378,42.643250 87.550369,41.872154 
	C87.695503,42.418720 87.573570,43.040127 87.183083,43.848652 
z"/>
<path fill="#6DD2F2" opacity="1.000000" stroke="none" 
	d="
M35.963123,62.551308 
	C35.581810,63.039196 35.347462,63.236179 35.016018,63.663597 
	C34.276176,66.008804 32.935600,68.265099 33.213562,70.300339 
	C33.784431,74.480217 35.590485,78.490982 36.166065,82.670792 
	C36.517239,85.220970 35.751392,88.028481 34.951900,90.550705 
	C34.781612,91.087936 32.291435,90.889809 30.530895,90.924393 
	C28.413252,87.885941 26.634756,84.953575 24.534069,81.911476 
	C23.641161,79.924156 23.375729,77.878082 22.448227,76.197380 
	C17.802788,67.779503 20.283974,59.941502 27.482363,53.300888 
	C32.269463,48.884720 36.756714,46.141964 43.105507,47.071320 
	C44.451180,47.268303 46.496201,48.446964 46.660404,49.432915 
	C46.846943,50.552944 45.508804,52.212799 44.428921,53.191711 
	C42.756008,54.708191 39.365681,54.885391 40.953987,58.814056 
	C41.098949,59.127144 41.146244,59.525391 41.140800,59.725365 
	C39.448658,60.689877 37.761951,61.454418 35.963123,62.551308 
z"/>
<path fill="#86D2F0" opacity="1.000000" stroke="none" 
	d="
M75.879044,46.964634 
	C79.303368,49.522991 76.356430,51.285618 75.030830,53.570793 
	C71.162773,53.817631 67.356865,53.752178 63.252285,53.058228 
	C63.634548,50.672955 64.315475,48.916180 65.421188,47.083858 
	C67.567856,47.061871 69.289742,47.115429 71.059845,47.461182 
	C72.392799,47.559998 73.677544,47.366619 75.185333,47.094131 
	C75.408394,47.015022 75.879044,46.964634 75.879044,46.964634 
z"/>
<path fill="#000000" opacity="1.000000" stroke="none" 
	d="
M51.878502,48.321957 
	C53.246864,48.248726 54.507683,48.487484 55.886112,48.403996 
	C56.766685,48.029400 57.529652,47.977043 58.819225,48.337269 
	C62.688622,48.664280 62.109871,50.948204 61.914265,53.000622 
	C57.913490,53.038082 53.912716,53.075546 49.454063,53.038879 
	C49.921108,51.521145 50.846031,50.077541 51.878502,48.321957 
z"/>
<path fill="#ADD1E7" opacity="1.000000" stroke="none" 
	d="
M62.148048,53.074211 
	C62.109871,50.948204 62.688622,48.664280 59.197498,48.399506 
	C59.794357,47.676159 60.539555,47.303150 62.002586,46.967293 
	C63.479084,47.056095 64.237747,47.107750 64.996407,47.159405 
	C64.315475,48.916180 63.634548,50.672955 62.910950,52.818962 
	C62.868286,53.208199 62.381832,53.147797 62.148048,53.074211 
z"/>
<path fill="#000000" opacity="1.000000" stroke="none" 
	d="
M65.421188,47.083858 
	C64.237747,47.107750 63.479084,47.056095 62.338440,46.994217 
	C61.943493,46.539135 61.930534,46.094276 61.940758,45.078621 
	C61.914658,44.344040 61.865372,44.180252 61.816090,44.016464 
	C62.203064,41.301952 62.577763,38.585621 62.980003,35.873371 
	C63.531662,32.153618 65.743233,30.399439 69.444992,29.893780 
	C73.575279,29.329580 77.172829,30.829102 78.465263,34.279919 
	C79.669022,37.493988 78.923271,41.438202 78.993744,45.516258 
	C78.026283,46.087414 77.100822,46.203308 76.027206,46.641914 
	C75.879044,46.964634 75.408394,47.015022 74.794510,47.021721 
	C73.124298,47.075275 72.067963,47.122128 71.011627,47.168983 
	C69.289742,47.115429 67.567856,47.061871 65.421188,47.083858 
z"/>
<path fill="#ADD1E7" opacity="1.000000" stroke="none" 
	d="
M61.668015,44.104103 
	C61.865372,44.180252 61.914658,44.344040 61.879814,44.749821 
	C61.653549,44.827614 61.491100,44.675480 61.381893,44.491711 
	C61.349987,44.438030 61.469715,44.294235 61.668015,44.104103 
z"/>
<path fill="#ADD1E7" opacity="1.000000" stroke="none" 
	d="
M71.059845,47.461182 
	C72.067963,47.122128 73.124298,47.075275 74.571457,47.100830 
	C73.677544,47.366619 72.392799,47.559998 71.059845,47.461182 
z"/>
</svg>